<svg xmlns="http://www.w3.org/2000/svg" version="1.1" xmlns:xlink="http://www.w3.org/1999/xlink" xmlns:svgjs="http://svgjs.dev/svgjs" width="1500" height="935" viewBox="0 0 1500 935"><g transform="matrix(1,0,0,1,-0.9090909090909918,0.3785425101214628)"><svg viewBox="0 0 396 247" data-background-color="#ffffff" preserveAspectRatio="xMidYMid meet" height="935" width="1500" xmlns="http://www.w3.org/2000/svg" xmlns:xlink="http://www.w3.org/1999/xlink"><g id="tight-bounds" transform="matrix(1,0,0,1,0.2400000000000091,-0.09999999999999432)"><svg viewBox="0 0 395.52 247.2" height="247.2" width="395.52"><g><svg></svg></g><g><svg viewBox="0 0 395.52 247.2" height="247.2" width="395.52"><g transform="matrix(1,0,0,1,76.33220228867675,47.215199999999996)"><svg viewBox="0 0 242.85559542264647 152.7696" height="152.7696" width="242.85559542264647"><g><svg viewBox="0 0 379.6735583990234 238.83566506364573" height="152.7696" width="242.85559542264647"><g><rect width="6.364332067122396" height="238.83566506364573" x="199.3807345946301" y="0" fill="#7200e9" opacity="1" stroke-width="0" stroke="transparent" fill-opacity="1" class="rect-qz-0" data-fill-palette-color="primary" rx="1%" id="qz-0" data-palette-color="#7200e9"></rect></g><g transform="matrix(1,0,0,1,222.40562181128757,0.5941185698100497)"><svg viewBox="0 0 157.26793658773585 237.64742792402564" height="237.64742792402564" width="157.26793658773585"><g id="textblocktransform"><svg viewBox="0 0 157.26793658773585 237.64742792402564" height="237.64742792402564" width="157.26793658773585" id="textblock"><g><svg viewBox="0 0 157.26793658773585 151.825483872" height="151.825483872" width="157.26793658773585"><g transform="matrix(1,0,0,1,0,0)"><svg width="157.26793658773585" viewBox="1.0299999999999994 -30.71 88.37000000000003 82.52000000000001" height="151.825483872" data-palette-color="#7200e9"><svg></svg><svg></svg><g class="wordmark-text-0" data-fill-palette-color="primary" id="text-0"><path d="M18.95-30.71c-3.293 0-7.527 0.397-12.7 1.19v0l-0.51 1.86 4.07 0.73-3.71 23.78-4.44 1.34-0.61 1.81h11.74c4.253 0 8.033-0.873 11.34-2.62 3.313-1.753 5.883-4.05 7.71-6.89 1.82-2.84 2.73-5.84 2.73-9v0c0-2.26-0.51-4.307-1.53-6.14-1.013-1.827-2.683-3.293-5.01-4.4-2.327-1.107-5.353-1.66-9.08-1.66zM17.63-28.22c2.52 0 4.64 0.507 6.36 1.52 1.713 1.02 2.99 2.413 3.83 4.18 0.84 1.767 1.26 3.787 1.26 6.06v0c0 2.573-0.61 4.92-1.83 7.04-1.22 2.113-2.953 3.79-5.2 5.03-2.247 1.233-4.853 1.85-7.82 1.85v0h-3.59l4.03-25.51c0.927-0.113 1.913-0.17 2.96-0.17zM42.33 0.73c1.047 0 2.077-0.203 3.09-0.61 1.02-0.407 1.923-0.913 2.71-1.52 0.793-0.613 1.383-1.22 1.77-1.82v0l-0.63-1.1c-0.507 0.44-1.227 0.853-2.16 1.24-0.94 0.393-2.01 0.59-3.21 0.59v0c-1.273 0-2.197-0.447-2.77-1.34-0.58-0.9-0.87-2.22-0.87-3.96v0c0-0.273 0.017-0.737 0.05-1.39v0c3.007 0.08 5.543-0.45 7.61-1.59 2.073-1.14 3.11-3.18 3.11-6.12v0c0-1.487-0.403-2.663-1.21-3.53-0.807-0.873-1.887-1.31-3.24-1.31v0c-1.787 0-3.473 0.673-5.06 2.02-1.587 1.34-2.857 3.137-3.81 5.39-0.953 2.253-1.43 4.673-1.43 7.26v0c0 5.193 2.017 7.79 6.05 7.79zM45.12-19.48c0.68 0 1.223 0.32 1.63 0.96 0.407 0.647 0.61 1.423 0.61 2.33v0c0 1.4-0.303 2.483-0.91 3.25-0.613 0.767-1.41 1.283-2.39 1.55-0.987 0.267-2.163 0.41-3.53 0.43v0c0.093-2.12 0.38-3.813 0.86-5.08 0.48-1.267 1.047-2.157 1.7-2.67 0.653-0.513 1.33-0.77 2.03-0.77zM58.84 0.73c1.04 0 2.07-0.203 3.09-0.61 1.013-0.407 1.917-0.913 2.71-1.52 0.787-0.613 1.377-1.22 1.77-1.82v0l-0.64-1.1c-0.507 0.44-1.227 0.853-2.16 1.24-0.933 0.393-2.003 0.59-3.21 0.59v0c-1.267 0-2.19-0.447-2.77-1.34-0.58-0.9-0.87-2.22-0.87-3.96v0c0-0.273 0.017-0.737 0.05-1.39v0c3.013 0.08 5.553-0.45 7.62-1.59 2.067-1.14 3.1-3.18 3.1-6.12v0c0-1.487-0.403-2.663-1.21-3.53-0.807-0.873-1.883-1.31-3.23-1.31v0c-1.793 0-3.483 0.673-5.07 2.02-1.587 1.34-2.857 3.137-3.81 5.39-0.953 2.253-1.43 4.673-1.43 7.26v0c0 5.193 2.02 7.79 6.06 7.79zM61.62-19.48c0.687 0 1.233 0.32 1.64 0.96 0.407 0.647 0.61 1.423 0.61 2.33v0c0 1.4-0.307 2.483-0.92 3.25-0.607 0.767-1.403 1.283-2.39 1.55-0.987 0.267-2.163 0.41-3.53 0.43v0c0.1-2.12 0.39-3.813 0.87-5.08 0.48-1.267 1.043-2.157 1.69-2.67 0.653-0.513 1.33-0.77 2.03-0.77zM73.32 8.94l3.73-24.83c0.88-0.88 1.623-1.487 2.23-1.82 0.613-0.333 1.383-0.5 2.31-0.5v0c0.653 0 1.26 0.25 1.82 0.75 0.56 0.507 1.013 1.243 1.36 2.21 0.34 0.973 0.51 2.1 0.51 3.38v0c0 2.2-0.337 4.03-1.01 5.49-0.68 1.453-1.5 2.517-2.46 3.19-0.96 0.68-1.863 1.02-2.71 1.02v0c-0.847 0-1.463-0.05-1.85-0.15-0.393-0.1-0.817-0.253-1.27-0.46v0l-0.56 2.98c0.433 0.147 1.14 0.22 2.12 0.22v0c1.933 0 3.817-0.64 5.65-1.92 1.833-1.28 3.327-2.97 4.48-5.07 1.153-2.1 1.73-4.32 1.73-6.66v0c0-1.76-0.253-3.28-0.76-4.56-0.513-1.273-1.213-2.25-2.1-2.93-0.887-0.673-1.887-1.01-3-1.01v0c-0.84 0-1.677 0.203-2.51 0.61-0.827 0.407-1.567 0.933-2.22 1.58-0.653 0.64-1.167 1.293-1.54 1.96v0l-0.32-0.05c0.113-0.633 0.17-1.103 0.17-1.41v0c0-0.767-0.24-1.333-0.72-1.7-0.48-0.367-1.303-0.55-2.47-0.55v0c-1.387 0-2.633 0.27-3.74 0.81v0l-0.22 1.95 1.03-0.02c0.713 0 1.26 0.103 1.64 0.31 0.387 0.213 0.58 0.63 0.58 1.25v0c0 0.08-0.017 0.25-0.05 0.51v0l-3.74 25.42z" fill="#7200e9" fill-rule="nonzero" stroke="none" stroke-width="1" stroke-linecap="butt" stroke-linejoin="miter" stroke-miterlimit="10" stroke-dasharray="" stroke-dashoffset="0" font-family="none" font-weight="none" font-size="none" text-anchor="none" style="mix-blend-mode: normal" data-fill-palette-color="primary" opacity="1"></path><path transform="translate(0,42.65)" d="M13.72-7.76l3.13-19.83 4.27-0.93 0.49-1.85h-13.31l-0.49 1.85 4.27 1.03-3.63 22.68c-0.293 1.887-1.04 3.66-2.24 5.32-1.193 1.66-2.92 3.427-5.18 5.3v0c0.193 0.747 0.533 1.453 1.02 2.12v0c2.8-1.66 4.92-3.11 6.36-4.35 1.44-1.247 2.57-2.73 3.39-4.45 0.827-1.713 1.467-4.01 1.92-6.89zM36.96-5.08c-0.633 0.607-1.3 1.097-2 1.47-0.7 0.373-1.553 0.56-2.56 0.56v0c-0.927 0-1.593-0.27-2-0.81-0.407-0.533-0.61-1.323-0.61-2.37v0c0-0.6 0.063-1.33 0.19-2.19v0l1.29-8.5c0.12-0.633 0.18-1.243 0.18-1.83v0c0-0.973-0.247-1.697-0.74-2.17-0.487-0.473-1.333-0.71-2.54-0.71v0c-1.38 0-2.623 0.267-3.73 0.8v0l-0.22 1.96 1.02-0.03c0.72 0 1.27 0.107 1.65 0.32 0.387 0.213 0.58 0.63 0.58 1.25v0c0 0.08-0.017 0.25-0.05 0.51v0l-1.52 10.55c-0.127 0.873-0.19 1.63-0.19 2.27v0c0 1.56 0.337 2.71 1.01 3.45 0.673 0.74 1.697 1.11 3.07 1.11v0c1.333 0 2.613-0.42 3.84-1.26 1.227-0.833 2.257-1.803 3.09-2.91v0h0.29c-0.113 0.5-0.17 0.987-0.17 1.46v0c0 1.727 0.953 2.59 2.86 2.59v0c0.6 0 1.19-0.073 1.77-0.22 0.573-0.147 1.18-0.333 1.82-0.56v0l0.44-1.69-1.62-0.29c-0.453-0.067-0.797-0.203-1.03-0.41-0.24-0.213-0.36-0.55-0.36-1.01v0c0-0.093 0.017-0.253 0.05-0.48v0l1.73-12.7c0.1-0.88 0.15-1.467 0.15-1.76v0c0-1.007-0.237-1.75-0.71-2.23-0.467-0.48-1.313-0.72-2.54-0.72v0c-1.38 0-2.623 0.267-3.73 0.8v0l-0.22 1.96 1.02-0.03c0.72 0 1.27 0.107 1.65 0.32 0.387 0.213 0.58 0.63 0.58 1.25v0c0 0.08-0.017 0.25-0.05 0.51v0zM49.76-21.83c-1.387 0-2.633 0.27-3.74 0.81v0l-0.22 1.95 1.03-0.02c0.713 0 1.26 0.107 1.64 0.32 0.387 0.207 0.58 0.62 0.58 1.24v0c0 0.08-0.017 0.25-0.05 0.51v0l-2.25 17.02h3.98l2.32-16.16c0.633-0.607 1.3-1.097 2-1.47 0.7-0.373 1.557-0.56 2.57-0.56v0c0.927 0 1.593 0.27 2 0.81 0.407 0.533 0.61 1.323 0.61 2.37v0c0 0.6-0.067 1.33-0.2 2.19v0l-1.24 8.01c-0.133 0.78-0.2 1.43-0.2 1.95v0c0 1.107 0.277 1.917 0.83 2.43 0.553 0.513 1.467 0.77 2.74 0.77v0c0.633 0 1.263-0.077 1.89-0.23 0.627-0.153 1.143-0.337 1.55-0.55v0l0.2-1.98c-0.7 0.02-1.26 0-1.68-0.06-0.413-0.053-0.753-0.22-1.02-0.5-0.267-0.273-0.4-0.703-0.4-1.29v0c0-0.96 0.187-2.613 0.56-4.96v0l0.85-5.74c0.147-0.873 0.22-1.66 0.22-2.36v0c0-2.98-1.367-4.47-4.1-4.47v0c-1.333 0-2.617 0.42-3.85 1.26-1.227 0.833-2.253 1.803-3.08 2.91v0h-0.3c0.133-0.6 0.2-1.097 0.2-1.49v0c0-0.927-0.287-1.61-0.86-2.05-0.567-0.44-1.427-0.66-2.58-0.66zM70.7-5.37c0-0.453 0.213-0.897 0.64-1.33 0.42-0.433 0.883-0.73 1.39-0.89v0c0.327 0.06 0.71 0.09 1.15 0.09v0c1.3 0 2.583-0.36 3.85-1.08 1.273-0.727 2.313-1.7 3.12-2.92 0.807-1.22 1.21-2.523 1.21-3.91v0c0-1.427-0.123-2.297-0.37-2.61v0l0.05-0.41 2.9 0.97h0.39l1.1-2.95-0.41-0.56-4.91 0.61c-0.96-1.027-2.237-1.54-3.83-1.54v0c-1.48 0-2.903 0.417-4.27 1.25-1.373 0.827-2.483 1.933-3.33 3.32-0.84 1.38-1.26 2.843-1.26 4.39v0c0 0.653 0.143 1.317 0.43 1.99 0.293 0.673 0.643 1.26 1.05 1.76 0.407 0.493 0.773 0.807 1.1 0.94v0l0.13 0.19c-0.64 0.2-1.303 0.513-1.99 0.94-0.693 0.433-1.277 0.927-1.75 1.48-0.473 0.553-0.71 1.107-0.71 1.66v0c0 0.833 0.193 1.46 0.58 1.88 0.38 0.427 0.887 0.76 1.52 1v0 0.2c-0.793 0.227-1.59 0.597-2.39 1.11-0.8 0.513-1.457 1.127-1.97 1.84-0.513 0.72-0.77 1.477-0.77 2.27v0c0.02 1.68 0.773 2.907 2.26 3.68 1.493 0.773 3.303 1.16 5.43 1.16v0c1.873 0 3.703-0.337 5.49-1.01 1.78-0.667 3.227-1.573 4.34-2.72 1.113-1.147 1.67-2.397 1.67-3.75v0c0-1.527-0.357-2.707-1.07-3.54-0.713-0.827-1.653-1.39-2.82-1.69-1.167-0.3-2.61-0.493-4.33-0.58v0c-0.98-0.027-1.697-0.07-2.15-0.13-0.46-0.06-0.82-0.17-1.08-0.33-0.26-0.16-0.39-0.42-0.39-0.78zM76.17-20.07c0.8 0 1.38 0.38 1.74 1.14 0.353 0.753 0.53 1.683 0.53 2.79v0c0 1.107-0.14 2.187-0.42 3.24-0.287 1.047-0.727 1.913-1.32 2.6-0.593 0.68-1.323 1.02-2.19 1.02v0c-0.827 0-1.48-0.397-1.96-1.19-0.48-0.8-0.72-1.72-0.72-2.76v0c0-1.06 0.173-2.12 0.52-3.18 0.353-1.053 0.857-1.927 1.51-2.62 0.66-0.693 1.43-1.04 2.31-1.04zM78.37 3.22c0 0.687-0.26 1.307-0.78 1.86-0.52 0.553-1.23 0.98-2.13 1.28-0.893 0.3-1.877 0.45-2.95 0.45v0c-0.96 0-1.863-0.153-2.71-0.46-0.847-0.313-1.527-0.75-2.04-1.31-0.513-0.56-0.77-1.197-0.77-1.91v0c0-0.573 0.18-1.117 0.54-1.63 0.36-0.513 0.8-0.947 1.32-1.3 0.52-0.36 1.007-0.607 1.46-0.74v0c1.92 0 3.41 0.063 4.47 0.19 1.06 0.12 1.923 0.453 2.59 1 0.667 0.54 1 1.397 1 2.57z" fill="#7200e9" fill-rule="nonzero" stroke="none" stroke-width="1" stroke-linecap="butt" stroke-linejoin="miter" stroke-miterlimit="10" stroke-dasharray="" stroke-dashoffset="0" font-family="none" font-weight="none" font-size="none" text-anchor="none" style="mix-blend-mode: normal" data-fill-palette-color="primary" opacity="1"></path></g></svg></g></svg></g><g transform="matrix(1,0,0,1,0,168.48603902153508)"><svg viewBox="0 0 73.45467003563246 69.16138890249057" height="69.16138890249057" width="73.45467003563246"><g transform="matrix(1,0,0,1,0,0)"><svg width="73.45467003563246" viewBox="1.0499999999999994 -33.00000000000001 252.05 222.15" height="69.16138890249057" data-palette-color="#340dcc"><svg></svg><svg></svg><svg></svg><svg></svg><svg></svg><g class="slogan-text-1" data-fill-palette-color="secondary" id="text-1"><path d="M2.2 0v-0.5h0.25c0.233 0 0.45-0.1 0.65-0.3 0.2-0.2 0.377-0.433 0.53-0.7 0.147-0.267 0.253-0.56 0.32-0.88 0.067-0.313 0.1-0.603 0.1-0.87v0-26.65c0-0.233-0.033-0.5-0.1-0.8-0.067-0.3-0.167-0.583-0.3-0.85-0.133-0.267-0.3-0.493-0.5-0.68-0.2-0.18-0.433-0.27-0.7-0.27v0h-0.25v-0.5h9.65c2.633 0 5 0.457 7.1 1.37 2.1 0.92 3.877 2.153 5.33 3.7 1.447 1.553 2.553 3.33 3.32 5.33 0.767 2 1.15 4.083 1.15 6.25v0c0 2.033-0.367 4.023-1.1 5.97-0.733 1.953-1.833 3.697-3.3 5.23-1.467 1.533-3.3 2.773-5.5 3.72-2.2 0.953-4.75 1.43-7.65 1.43v0zM25.35-15.6v0c0-2.133-0.383-4.15-1.15-6.05-0.767-1.9-1.84-3.56-3.22-4.98-1.387-1.413-3.023-2.537-4.91-3.37-1.88-0.833-3.92-1.25-6.12-1.25v0h-2.55v29.5h2.65c1.8 0 3.61-0.277 5.43-0.83 1.813-0.547 3.453-1.397 4.92-2.55 1.467-1.147 2.66-2.587 3.58-4.32 0.913-1.733 1.37-3.783 1.37-6.15zM40.25 0h-6.5v-0.5c0.267 0 0.5-0.1 0.7-0.3 0.2-0.2 0.367-0.433 0.5-0.7 0.133-0.267 0.233-0.56 0.3-0.88 0.067-0.313 0.1-0.603 0.1-0.87v0-13.85c0-0.567-0.083-1.11-0.25-1.63-0.167-0.513-0.65-0.787-1.45-0.82v0-0.45l5-1.6v18.35c0 0.267 0.033 0.557 0.1 0.87 0.067 0.32 0.167 0.613 0.3 0.88 0.133 0.267 0.3 0.5 0.5 0.7 0.2 0.2 0.433 0.3 0.7 0.3v0zM34-26.4v0c0-0.667 0.223-1.233 0.67-1.7 0.453-0.467 1.013-0.7 1.68-0.7v0c0.667 0 1.233 0.233 1.7 0.7 0.467 0.467 0.7 1.033 0.7 1.7v0c0 0.667-0.233 1.217-0.7 1.65-0.467 0.433-1.033 0.65-1.7 0.65v0c-0.667 0-1.227-0.217-1.68-0.65-0.447-0.433-0.67-0.983-0.67-1.65zM60.9-21h4.9v0.5c-0.233 0-0.467 0.083-0.7 0.25-0.233 0.167-0.457 0.383-0.67 0.65-0.22 0.267-0.42 0.557-0.6 0.87-0.187 0.32-0.347 0.613-0.48 0.88v0l-8.6 18.7-8.55-18.9c-0.233-0.533-0.533-1.077-0.9-1.63-0.367-0.547-0.833-0.82-1.4-0.82v0-0.5h6.85v0.5c-0.2 0-0.457 0.1-0.77 0.3-0.32 0.2-0.48 0.483-0.48 0.85v0c0 0.167 0.133 0.55 0.4 1.15v0l5.75 12.95 6.2-13.5c0.133-0.333 0.2-0.583 0.2-0.75v0c0-0.3-0.14-0.543-0.42-0.73-0.287-0.18-0.53-0.27-0.73-0.27v0zM76.1 0h-6.5v-0.5c0.267 0 0.5-0.1 0.7-0.3 0.2-0.2 0.367-0.433 0.5-0.7 0.133-0.267 0.233-0.56 0.3-0.88 0.067-0.313 0.1-0.603 0.1-0.87v0-13.85c0-0.567-0.083-1.11-0.25-1.63-0.167-0.513-0.65-0.787-1.45-0.82v0-0.45l5-1.6v18.35c0 0.267 0.033 0.557 0.1 0.87 0.067 0.32 0.167 0.613 0.3 0.88 0.133 0.267 0.3 0.5 0.5 0.7 0.2 0.2 0.433 0.3 0.7 0.3v0zM69.85-26.4v0c0-0.667 0.227-1.233 0.68-1.7 0.447-0.467 1.003-0.7 1.67-0.7v0c0.667 0 1.233 0.233 1.7 0.7 0.467 0.467 0.7 1.033 0.7 1.7v0c0 0.667-0.233 1.217-0.7 1.65-0.467 0.433-1.033 0.65-1.7 0.65v0c-0.667 0-1.223-0.217-1.67-0.65-0.453-0.433-0.68-0.983-0.68-1.65zM101.55-12.9v9.65c0 0.267 0.033 0.557 0.1 0.87 0.067 0.32 0.177 0.613 0.33 0.88 0.147 0.267 0.313 0.5 0.5 0.7 0.18 0.2 0.403 0.3 0.67 0.3v0 0.5h-6.45v-0.5c0.233 0 0.45-0.1 0.65-0.3 0.2-0.2 0.377-0.433 0.53-0.7 0.147-0.267 0.253-0.56 0.32-0.88 0.067-0.313 0.1-0.603 0.1-0.87v0-9.3c0-1.2-0.167-2.25-0.5-3.15-0.333-0.9-0.783-1.65-1.35-2.25-0.567-0.6-1.207-1.043-1.92-1.33-0.72-0.28-1.447-0.42-2.18-0.42v0c-0.733 0-1.457 0.15-2.17 0.45-0.72 0.3-1.353 0.693-1.9 1.18-0.553 0.48-1.007 1.043-1.36 1.69-0.347 0.653-0.52 1.33-0.52 2.03v0 11.1c0 0.267 0.033 0.557 0.1 0.87 0.067 0.32 0.177 0.613 0.33 0.88 0.147 0.267 0.313 0.5 0.5 0.7 0.18 0.2 0.403 0.3 0.67 0.3v0 0.5h-6.5v-0.5c0.233 0 0.45-0.1 0.65-0.3 0.2-0.2 0.373-0.433 0.52-0.7 0.153-0.267 0.263-0.56 0.33-0.88 0.067-0.313 0.1-0.603 0.1-0.87v0-13.8c0-0.567-0.083-1.11-0.25-1.63-0.167-0.513-0.65-0.787-1.45-0.82v0-0.45l5-1.6v2.75c0.233-0.267 0.533-0.56 0.9-0.88 0.367-0.313 0.81-0.613 1.33-0.9 0.513-0.28 1.113-0.513 1.8-0.7 0.68-0.18 1.487-0.27 2.42-0.27v0c1.567 0 2.9 0.267 4 0.8 1.1 0.533 2 1.223 2.7 2.07 0.7 0.853 1.21 1.787 1.53 2.8 0.313 1.02 0.47 2.013 0.47 2.98zM118.45 9.3v0c1 0 1.95-0.09 2.85-0.27 0.9-0.187 1.693-0.447 2.38-0.78 0.68-0.333 1.22-0.733 1.62-1.2 0.4-0.467 0.6-0.967 0.6-1.5v0c0-0.567-0.273-1.05-0.82-1.45-0.553-0.4-1.297-0.75-2.23-1.05-0.933-0.3-2.017-0.56-3.25-0.78-1.233-0.213-2.517-0.437-3.85-0.67v0l-2.55-0.45c-0.767 0.6-1.3 1.233-1.6 1.9-0.3 0.667-0.45 1.25-0.45 1.75v0c0 0.7 0.193 1.327 0.58 1.88 0.38 0.547 0.897 1.02 1.55 1.42 0.647 0.4 1.413 0.7 2.3 0.9 0.88 0.2 1.837 0.3 2.87 0.3zM114.95-1.7l6.25 1c1.333 0.2 2.443 0.467 3.33 0.8 0.88 0.333 1.587 0.727 2.12 1.18 0.533 0.447 0.9 0.947 1.1 1.5 0.2 0.547 0.3 1.137 0.3 1.77v0c0 1.133-0.307 2.117-0.92 2.95-0.62 0.833-1.42 1.527-2.4 2.08-0.987 0.547-2.103 0.953-3.35 1.22-1.253 0.267-2.53 0.4-3.83 0.4v0c-1.267 0-2.483-0.123-3.65-0.37-1.167-0.253-2.2-0.63-3.1-1.13-0.9-0.5-1.617-1.123-2.15-1.87-0.533-0.753-0.8-1.613-0.8-2.58v0c0-0.867 0.267-1.69 0.8-2.47 0.533-0.787 1.4-1.563 2.6-2.33v0c-1.167-0.6-2.057-1.41-2.67-2.43-0.62-1.013-0.93-2.053-0.93-3.12v0c0-0.633 0.15-1.26 0.45-1.88 0.3-0.613 0.783-1.187 1.45-1.72v0c-0.567-0.667-0.967-1.333-1.2-2-0.233-0.667-0.35-1.383-0.35-2.15v0c0-1.2 0.25-2.317 0.75-3.35 0.5-1.033 1.183-1.933 2.05-2.7 0.867-0.767 1.883-1.367 3.05-1.8 1.167-0.433 2.417-0.65 3.75-0.65v0c1.4 0 2.733 0.24 4 0.72 1.267 0.487 2.333 1.113 3.2 1.88v0h3.6v1.8h-2.3c0.233 0.5 0.467 1.09 0.7 1.77 0.233 0.687 0.35 1.397 0.35 2.13v0c0 1.067-0.25 2.073-0.75 3.02-0.5 0.953-1.19 1.787-2.07 2.5-0.887 0.72-1.92 1.287-3.1 1.7-1.187 0.42-2.447 0.63-3.78 0.63v0c-1.233 0-2.433-0.183-3.6-0.55-1.167-0.367-2.2-0.9-3.1-1.6v0c-0.367 0.233-0.617 0.523-0.75 0.87-0.133 0.353-0.2 0.713-0.2 1.08v0c0 1.067 0.483 1.89 1.45 2.47 0.967 0.587 2.2 0.997 3.7 1.23zM117-19.6v0c-0.8 0-1.55 0.14-2.25 0.42-0.7 0.287-1.317 0.68-1.85 1.18-0.533 0.5-0.957 1.107-1.27 1.82-0.32 0.72-0.48 1.53-0.48 2.43v0c0 1.1 0.227 2.083 0.68 2.95 0.447 0.867 1.02 1.583 1.72 2.15 0.7 0.567 1.477 1 2.33 1.3 0.847 0.3 1.653 0.45 2.42 0.45v0c0.833 0 1.593-0.16 2.28-0.48 0.68-0.313 1.27-0.747 1.77-1.3 0.5-0.547 0.883-1.187 1.15-1.92 0.267-0.733 0.4-1.5 0.4-2.3v0c0-1-0.2-1.917-0.6-2.75-0.4-0.833-0.923-1.543-1.57-2.13-0.653-0.58-1.397-1.03-2.23-1.35-0.833-0.313-1.667-0.47-2.5-0.47zM153 0h-6.5v-0.5c0.267 0 0.5-0.1 0.7-0.3 0.2-0.2 0.367-0.433 0.5-0.7 0.133-0.267 0.233-0.56 0.3-0.88 0.067-0.313 0.1-0.603 0.1-0.87v0-13.85c0-0.567-0.083-1.11-0.25-1.63-0.167-0.513-0.65-0.787-1.45-0.82v0-0.45l5-1.6v18.35c0 0.267 0.033 0.557 0.1 0.87 0.067 0.32 0.167 0.613 0.3 0.88 0.133 0.267 0.3 0.5 0.5 0.7 0.2 0.2 0.433 0.3 0.7 0.3v0zM146.75-26.4v0c0-0.667 0.227-1.233 0.68-1.7 0.447-0.467 1.003-0.7 1.67-0.7v0c0.667 0 1.233 0.233 1.7 0.7 0.467 0.467 0.7 1.033 0.7 1.7v0c0 0.667-0.233 1.217-0.7 1.65-0.467 0.433-1.033 0.65-1.7 0.65v0c-0.667 0-1.223-0.217-1.67-0.65-0.453-0.433-0.68-0.983-0.68-1.65zM178.45-12.9v9.65c0 0.267 0.033 0.557 0.1 0.87 0.067 0.32 0.177 0.613 0.33 0.88 0.147 0.267 0.313 0.5 0.5 0.7 0.18 0.2 0.403 0.3 0.67 0.3v0 0.5h-6.45v-0.5c0.233 0 0.45-0.1 0.65-0.3 0.2-0.2 0.377-0.433 0.53-0.7 0.147-0.267 0.253-0.56 0.32-0.88 0.067-0.313 0.1-0.603 0.1-0.87v0-9.3c0-1.2-0.167-2.25-0.5-3.15-0.333-0.9-0.783-1.65-1.35-2.25-0.567-0.6-1.207-1.043-1.92-1.33-0.72-0.28-1.447-0.42-2.18-0.42v0c-0.733 0-1.457 0.15-2.17 0.45-0.72 0.3-1.353 0.693-1.9 1.18-0.553 0.48-1.003 1.043-1.35 1.69-0.353 0.653-0.53 1.33-0.53 2.03v0 11.1c0 0.267 0.033 0.557 0.1 0.87 0.067 0.32 0.177 0.613 0.33 0.88 0.147 0.267 0.313 0.5 0.5 0.7 0.18 0.2 0.403 0.3 0.67 0.3v0 0.5h-6.5v-0.5c0.233 0 0.45-0.1 0.65-0.3 0.2-0.2 0.377-0.433 0.53-0.7 0.147-0.267 0.253-0.56 0.32-0.88 0.067-0.313 0.1-0.603 0.1-0.87v0-13.8c0-0.567-0.083-1.11-0.25-1.63-0.167-0.513-0.65-0.787-1.45-0.82v0-0.45l5-1.6v2.75c0.233-0.267 0.533-0.56 0.9-0.88 0.367-0.313 0.81-0.613 1.33-0.9 0.513-0.28 1.113-0.513 1.8-0.7 0.68-0.18 1.487-0.27 2.42-0.27v0c1.567 0 2.9 0.267 4 0.8 1.1 0.533 2 1.223 2.7 2.07 0.7 0.853 1.21 1.787 1.53 2.8 0.313 1.02 0.47 2.013 0.47 2.98zM195.45-19.3h-5.6v12.05c0 0.867 0.017 1.65 0.05 2.35 0.033 0.7 0.117 1.283 0.25 1.75 0.133 0.467 0.333 0.823 0.6 1.07 0.267 0.253 0.633 0.38 1.1 0.38v0c0.7 0 1.36-0.333 1.98-1 0.613-0.667 1.003-1.467 1.17-2.4v0h0.45v3.65c-0.3 0-0.55 0.1-0.75 0.3v0c-0.267 0.233-0.64 0.483-1.12 0.75-0.487 0.267-1.213 0.4-2.18 0.4v0c-1.2 0-2.133-0.233-2.8-0.7-0.667-0.467-1.15-1.083-1.45-1.85-0.3-0.767-0.473-1.617-0.52-2.55-0.053-0.933-0.08-1.883-0.08-2.85v0-11.35h-2.8v-1.7h2.8v-4.45c0-0.567-0.073-1.093-0.22-1.58-0.153-0.48-0.647-0.737-1.48-0.77v0-0.5l5-1.6v8.9h5.6zM209.7 0.35v0c-1.667 0-3.167-0.277-4.5-0.83-1.333-0.547-2.473-1.297-3.42-2.25-0.953-0.947-1.687-2.07-2.2-3.37-0.52-1.3-0.78-2.717-0.78-4.25v0c0-1.633 0.283-3.127 0.85-4.48 0.567-1.347 1.35-2.503 2.35-3.47 1-0.967 2.183-1.717 3.55-2.25 1.367-0.533 2.85-0.8 4.45-0.8v0c1.6 0 3.067 0.257 4.4 0.77 1.333 0.52 2.483 1.247 3.45 2.18 0.967 0.933 1.717 2.04 2.25 3.32 0.533 1.287 0.8 2.697 0.8 4.23v0c0 1.433-0.24 2.823-0.72 4.17-0.487 1.353-1.203 2.547-2.15 3.58-0.953 1.033-2.12 1.867-3.5 2.5-1.387 0.633-2.997 0.95-4.83 0.95zM209.4-19.7v0c-1.2 0.067-2.257 0.36-3.17 0.88-0.92 0.513-1.687 1.18-2.3 2-0.62 0.813-1.087 1.737-1.4 2.77-0.32 1.033-0.48 2.083-0.48 3.15v0c0 1.233 0.193 2.423 0.58 3.57 0.38 1.153 0.93 2.18 1.65 3.08 0.713 0.9 1.57 1.617 2.57 2.15 1 0.533 2.117 0.8 3.35 0.8v0c1.233 0 2.327-0.267 3.28-0.8 0.947-0.533 1.737-1.223 2.37-2.07 0.633-0.853 1.11-1.813 1.43-2.88 0.313-1.067 0.47-2.133 0.47-3.2v0c0-1.1-0.167-2.21-0.5-3.33-0.333-1.113-0.85-2.13-1.55-3.05-0.7-0.913-1.573-1.653-2.62-2.22-1.053-0.567-2.28-0.85-3.68-0.85z" fill="#340dcc" fill-rule="nonzero" stroke="none" stroke-width="1" stroke-linecap="butt" stroke-linejoin="miter" stroke-miterlimit="10" stroke-dasharray="" stroke-dashoffset="0" font-family="none" font-weight="none" font-size="none" text-anchor="none" style="mix-blend-mode: normal" data-fill-palette-color="secondary" opacity="1"></path><path transform="translate(0,47.2)" d="M12.75-19.3h-5.6v12.05c0 0.867 0.017 1.65 0.05 2.35 0.033 0.7 0.117 1.283 0.25 1.75 0.133 0.467 0.333 0.823 0.6 1.07 0.267 0.253 0.633 0.38 1.1 0.38v0c0.7 0 1.36-0.333 1.98-1 0.613-0.667 1.003-1.467 1.17-2.4v0h0.45v3.65c-0.3 0-0.55 0.1-0.75 0.3v0c-0.267 0.233-0.64 0.483-1.12 0.75-0.487 0.267-1.213 0.4-2.18 0.4v0c-1.2 0-2.133-0.233-2.8-0.7-0.667-0.467-1.15-1.083-1.45-1.85-0.3-0.767-0.473-1.617-0.52-2.55-0.053-0.933-0.08-1.883-0.08-2.85v0-11.35h-2.8v-1.7h2.8v-4.45c0-0.567-0.073-1.093-0.22-1.58-0.153-0.48-0.647-0.737-1.48-0.77v0-0.5l5-1.6v8.9h5.6zM36.6-12.9v9.65c0 0.267 0.033 0.557 0.1 0.87 0.067 0.32 0.177 0.613 0.33 0.88 0.147 0.267 0.313 0.5 0.5 0.7 0.18 0.2 0.403 0.3 0.67 0.3v0 0.5h-6.45v-0.5c0.233 0 0.45-0.1 0.65-0.3 0.2-0.2 0.373-0.433 0.52-0.7 0.153-0.267 0.263-0.56 0.33-0.88 0.067-0.313 0.1-0.603 0.1-0.87v0-9.3c0-1.2-0.167-2.25-0.5-3.15-0.333-0.9-0.783-1.65-1.35-2.25-0.567-0.6-1.207-1.043-1.92-1.33-0.72-0.28-1.447-0.42-2.18-0.42v0c-0.733 0-1.457 0.14-2.17 0.42-0.72 0.287-1.353 0.68-1.9 1.18-0.553 0.5-1.003 1.107-1.35 1.82-0.353 0.72-0.53 1.513-0.53 2.38v0 10.65c0 0.267 0.033 0.557 0.1 0.87 0.067 0.32 0.177 0.613 0.33 0.88 0.147 0.267 0.313 0.5 0.5 0.7 0.18 0.2 0.403 0.3 0.67 0.3v0 0.5h-6.5v-0.5c0.233 0 0.45-0.1 0.65-0.3 0.2-0.2 0.377-0.433 0.53-0.7 0.147-0.267 0.253-0.56 0.32-0.88 0.067-0.313 0.1-0.603 0.1-0.87v0-25.55c0-0.567-0.083-1.1-0.25-1.6-0.167-0.5-0.65-0.767-1.45-0.8v0-0.5l5-1.55v14.45c0.233-0.267 0.533-0.56 0.9-0.88 0.367-0.313 0.81-0.613 1.33-0.9 0.513-0.28 1.113-0.513 1.8-0.7 0.68-0.18 1.487-0.27 2.42-0.27v0c1.567 0 2.9 0.267 4 0.8 1.1 0.533 2 1.223 2.7 2.07 0.7 0.853 1.21 1.787 1.53 2.8 0.313 1.02 0.47 2.013 0.47 2.98zM63.2-10.1h-17.35c0.133 1.167 0.417 2.273 0.85 3.32 0.433 1.053 1.01 1.98 1.73 2.78 0.713 0.8 1.587 1.44 2.62 1.92 1.033 0.487 2.233 0.73 3.6 0.73v0c0.733 0 1.51-0.11 2.33-0.33 0.813-0.213 1.57-0.52 2.27-0.92 0.7-0.4 1.327-0.893 1.88-1.48 0.547-0.58 0.92-1.237 1.12-1.97v0h0.45v3.75c-0.2 0-0.423 0.067-0.67 0.2-0.253 0.133-0.547 0.3-0.88 0.5v0c-0.667 0.4-1.567 0.823-2.7 1.27-1.133 0.453-2.633 0.68-4.5 0.68v0c-1.5 0-2.923-0.217-4.27-0.65-1.353-0.433-2.547-1.1-3.58-2-1.033-0.9-1.857-2.05-2.47-3.45-0.62-1.4-0.93-3.067-0.93-5v0c0-1.233 0.21-2.483 0.63-3.75 0.413-1.267 1.047-2.41 1.9-3.43 0.847-1.013 1.937-1.837 3.27-2.47 1.333-0.633 2.933-0.95 4.8-0.95v0c1.667 0 3.123 0.283 4.37 0.85 1.253 0.567 2.29 1.35 3.11 2.35 0.813 1 1.42 2.183 1.82 3.55 0.4 1.367 0.6 2.867 0.6 4.5zM53.1-19.7v0c-1.167 0-2.173 0.233-3.02 0.7-0.853 0.467-1.58 1.067-2.18 1.8-0.6 0.733-1.067 1.567-1.4 2.5-0.333 0.933-0.55 1.867-0.65 2.8v0h14.25c-0.033-0.967-0.207-1.917-0.52-2.85-0.32-0.933-0.763-1.767-1.33-2.5-0.567-0.733-1.283-1.327-2.15-1.78-0.867-0.447-1.867-0.67-3-0.67zM80.3 0v-0.5h0.25c0.233 0 0.45-0.1 0.65-0.3 0.2-0.2 0.373-0.433 0.52-0.7 0.153-0.267 0.263-0.56 0.33-0.88 0.067-0.313 0.1-0.603 0.1-0.87v0-26.65c0-0.233-0.033-0.5-0.1-0.8-0.067-0.3-0.167-0.583-0.3-0.85-0.133-0.267-0.3-0.493-0.5-0.68-0.2-0.18-0.433-0.27-0.7-0.27v0h-0.25v-0.5h9.65c2.633 0 5 0.457 7.1 1.37 2.1 0.92 3.877 2.153 5.33 3.7 1.447 1.553 2.553 3.33 3.32 5.33 0.767 2 1.15 4.083 1.15 6.25v0c0 2.033-0.367 4.023-1.1 5.97-0.733 1.953-1.833 3.697-3.3 5.23-1.467 1.533-3.3 2.773-5.5 3.72-2.2 0.953-4.75 1.43-7.65 1.43v0zM103.45-15.6v0c0-2.133-0.383-4.15-1.15-6.05-0.767-1.9-1.843-3.56-3.23-4.98-1.38-1.413-3.013-2.537-4.9-3.37-1.88-0.833-3.92-1.25-6.12-1.25v0h-2.55v29.5h2.65c1.8 0 3.607-0.277 5.42-0.83 1.82-0.547 3.463-1.397 4.93-2.55 1.467-1.147 2.657-2.587 3.57-4.32 0.92-1.733 1.38-3.783 1.38-6.15zM131.25-10.1h-17.35c0.133 1.167 0.417 2.273 0.85 3.32 0.433 1.053 1.007 1.98 1.72 2.78 0.72 0.8 1.597 1.44 2.63 1.92 1.033 0.487 2.233 0.73 3.6 0.73v0c0.733 0 1.507-0.11 2.32-0.33 0.82-0.213 1.58-0.52 2.28-0.92 0.7-0.4 1.323-0.893 1.87-1.48 0.553-0.58 0.93-1.237 1.13-1.97v0h0.45v3.75c-0.2 0-0.427 0.067-0.68 0.2-0.247 0.133-0.537 0.3-0.87 0.5v0c-0.667 0.4-1.567 0.823-2.7 1.27-1.133 0.453-2.633 0.68-4.5 0.68v0c-1.5 0-2.927-0.217-4.28-0.65-1.347-0.433-2.537-1.1-3.57-2-1.033-0.9-1.86-2.05-2.48-3.45-0.613-1.4-0.92-3.067-0.92-5v0c0-1.233 0.207-2.483 0.62-3.75 0.42-1.267 1.053-2.41 1.9-3.43 0.853-1.013 1.947-1.837 3.28-2.47 1.333-0.633 2.933-0.95 4.8-0.95v0c1.667 0 3.123 0.283 4.37 0.85 1.253 0.567 2.287 1.35 3.1 2.35 0.82 1 1.43 2.183 1.83 3.55 0.4 1.367 0.6 2.867 0.6 4.5zM121.15-19.7v0c-1.167 0-2.177 0.233-3.03 0.7-0.847 0.467-1.57 1.067-2.17 1.8-0.6 0.733-1.067 1.567-1.4 2.5-0.333 0.933-0.55 1.867-0.65 2.8v0h14.25c-0.033-0.967-0.207-1.917-0.52-2.85-0.32-0.933-0.763-1.767-1.33-2.5-0.567-0.733-1.283-1.327-2.15-1.78-0.867-0.447-1.867-0.67-3-0.67zM146.05-21.35v0c1.8 0 3.357 0.307 4.67 0.92 1.32 0.62 2.42 1.43 3.3 2.43 0.887 1 1.547 2.15 1.98 3.45 0.433 1.3 0.65 2.633 0.65 4v0c0 1.333-0.21 2.65-0.63 3.95-0.413 1.3-1.047 2.467-1.9 3.5-0.847 1.033-1.903 1.867-3.17 2.5-1.267 0.633-2.767 0.95-4.5 0.95v0c-1.033 0-2.093-0.277-3.18-0.83-1.08-0.547-2.053-1.237-2.92-2.07v0 9.8c0 0.267 0.033 0.56 0.1 0.88 0.067 0.313 0.173 0.603 0.32 0.87 0.153 0.267 0.32 0.5 0.5 0.7 0.187 0.2 0.413 0.3 0.68 0.3v0 0.5h-6.5v-0.5c0.233 0 0.45-0.1 0.65-0.3 0.2-0.2 0.373-0.433 0.52-0.7 0.153-0.267 0.263-0.557 0.33-0.87 0.067-0.32 0.1-0.613 0.1-0.88v0-25.3c0-0.3-0.01-0.593-0.03-0.88-0.013-0.28-0.07-0.53-0.17-0.75-0.1-0.213-0.26-0.397-0.48-0.55-0.213-0.147-0.52-0.237-0.92-0.27v0-0.5h4.9v2.2c0.667-0.8 1.473-1.427 2.42-1.88 0.953-0.447 2.047-0.67 3.28-0.67zM146.5-1.35v0c1.167-0.033 2.183-0.3 3.05-0.8 0.867-0.5 1.583-1.15 2.15-1.95 0.567-0.8 0.983-1.693 1.25-2.68 0.267-0.98 0.4-2.003 0.4-3.07v0c0-1.2-0.167-2.383-0.5-3.55-0.333-1.167-0.817-2.21-1.45-3.13-0.633-0.913-1.41-1.663-2.33-2.25-0.913-0.58-1.953-0.87-3.12-0.87v0c-0.7 0-1.393 0.133-2.08 0.4-0.68 0.267-1.28 0.65-1.8 1.15-0.513 0.5-0.93 1.093-1.25 1.78-0.313 0.68-0.47 1.437-0.47 2.27v0 6.55c0 0.9 0.183 1.723 0.55 2.47 0.367 0.753 0.84 1.403 1.42 1.95 0.587 0.553 1.247 0.98 1.98 1.28 0.733 0.3 1.467 0.45 2.2 0.45zM171.65-19.3h-5.6v12.05c0 0.867 0.017 1.65 0.05 2.35 0.033 0.7 0.117 1.283 0.25 1.75 0.133 0.467 0.333 0.823 0.6 1.07 0.267 0.253 0.633 0.38 1.1 0.38v0c0.7 0 1.357-0.333 1.97-1 0.62-0.667 1.013-1.467 1.18-2.4v0h0.45v3.65c-0.3 0-0.55 0.1-0.75 0.3v0c-0.267 0.233-0.643 0.483-1.13 0.75-0.48 0.267-1.203 0.4-2.17 0.4v0c-1.2 0-2.133-0.233-2.8-0.7-0.667-0.467-1.15-1.083-1.45-1.85-0.3-0.767-0.477-1.617-0.53-2.55-0.047-0.933-0.07-1.883-0.07-2.85v0-11.35h-2.8v-1.7h2.8v-4.45c0-0.567-0.077-1.093-0.23-1.58-0.147-0.48-0.637-0.737-1.47-0.77v0-0.5l5-1.6v8.9h5.6zM195.5-12.9v9.65c0 0.267 0.033 0.557 0.1 0.87 0.067 0.32 0.173 0.613 0.32 0.88 0.153 0.267 0.32 0.5 0.5 0.7 0.187 0.2 0.413 0.3 0.68 0.3v0 0.5h-6.45v-0.5c0.233 0 0.45-0.1 0.65-0.3 0.2-0.2 0.373-0.433 0.52-0.7 0.153-0.267 0.263-0.56 0.33-0.88 0.067-0.313 0.1-0.603 0.1-0.87v0-9.3c0-1.2-0.167-2.25-0.5-3.15-0.333-0.9-0.783-1.65-1.35-2.25-0.567-0.6-1.21-1.043-1.93-1.33-0.713-0.28-1.437-0.42-2.17-0.42v0c-0.733 0-1.46 0.14-2.18 0.42-0.713 0.287-1.347 0.68-1.9 1.18-0.547 0.5-0.997 1.107-1.35 1.82-0.347 0.72-0.52 1.513-0.52 2.38v0 10.65c0 0.267 0.033 0.557 0.1 0.87 0.067 0.32 0.173 0.613 0.32 0.88 0.153 0.267 0.32 0.5 0.5 0.7 0.187 0.2 0.413 0.3 0.68 0.3v0 0.5h-6.5v-0.5c0.233 0 0.45-0.1 0.65-0.3 0.2-0.2 0.373-0.433 0.52-0.7 0.153-0.267 0.263-0.56 0.33-0.88 0.067-0.313 0.1-0.603 0.1-0.87v0-25.55c0-0.567-0.083-1.1-0.25-1.6-0.167-0.5-0.65-0.767-1.45-0.8v0-0.5l5-1.55v14.45c0.233-0.267 0.533-0.56 0.9-0.88 0.367-0.313 0.807-0.613 1.32-0.9 0.52-0.28 1.12-0.513 1.8-0.7 0.687-0.18 1.497-0.27 2.43-0.27v0c1.567 0 2.9 0.267 4 0.8 1.1 0.533 2 1.223 2.7 2.07 0.7 0.853 1.207 1.787 1.52 2.8 0.32 1.02 0.48 2.013 0.48 2.98zM218.25-5.7v0c0 0.867-0.217 1.667-0.65 2.4-0.433 0.733-1.027 1.373-1.78 1.92-0.747 0.553-1.62 0.987-2.62 1.3-1 0.32-2.083 0.48-3.25 0.48v0c-1.433 0-2.6-0.193-3.5-0.58-0.9-0.38-1.667-0.77-2.3-1.17v0c-0.433-0.267-0.833-0.49-1.2-0.67-0.367-0.187-0.767-0.28-1.2-0.28v0-3.8h0.5c0.1 0.467 0.39 0.973 0.87 1.52 0.487 0.553 1.07 1.063 1.75 1.53 0.687 0.467 1.437 0.857 2.25 1.17 0.82 0.32 1.647 0.48 2.48 0.48v0c0.6 0 1.217-0.067 1.85-0.2 0.633-0.133 1.207-0.35 1.72-0.65 0.52-0.3 0.953-0.677 1.3-1.13 0.353-0.447 0.53-0.987 0.53-1.62v0c0-0.633-0.183-1.183-0.55-1.65-0.367-0.467-0.833-0.877-1.4-1.23-0.567-0.347-1.217-0.653-1.95-0.92-0.733-0.267-1.467-0.517-2.2-0.75v0c-0.867-0.267-1.743-0.567-2.63-0.9-0.88-0.333-1.67-0.727-2.37-1.18-0.7-0.447-1.267-0.997-1.7-1.65-0.433-0.647-0.65-1.42-0.65-2.32v0c0-0.767 0.14-1.5 0.42-2.2 0.287-0.7 0.753-1.31 1.4-1.83 0.653-0.513 1.497-0.93 2.53-1.25 1.033-0.313 2.283-0.47 3.75-0.47v0c1.3 0 2.307 0.107 3.02 0.32 0.72 0.22 1.313 0.447 1.78 0.68v0c0.3 0.167 0.6 0.29 0.9 0.37 0.3 0.087 0.633 0.13 1 0.13v0 3.5h-0.4c-0.6-1.1-1.517-1.933-2.75-2.5-1.233-0.567-2.5-0.85-3.8-0.85v0c-0.833 0-1.55 0.107-2.15 0.32-0.6 0.22-1.093 0.49-1.48 0.81-0.38 0.313-0.663 0.67-0.85 1.07-0.18 0.4-0.27 0.8-0.27 1.2v0c0 0.567 0.157 1.05 0.47 1.45 0.32 0.4 0.753 0.75 1.3 1.05 0.553 0.3 1.17 0.583 1.85 0.85 0.687 0.267 1.413 0.517 2.18 0.75v0c0.933 0.3 1.867 0.623 2.8 0.97 0.933 0.353 1.767 0.78 2.5 1.28 0.733 0.5 1.333 1.09 1.8 1.77 0.467 0.687 0.7 1.513 0.7 2.48z" fill="#340dcc" fill-rule="nonzero" stroke="none" stroke-width="1" stroke-linecap="butt" stroke-linejoin="miter" stroke-miterlimit="10" stroke-dasharray="" stroke-dashoffset="0" font-family="none" font-weight="none" font-size="none" text-anchor="none" style="mix-blend-mode: normal" data-fill-palette-color="secondary" opacity="1"></path><path transform="translate(0,94.4)" d="M12.75 0.35v0c-1.667 0-3.167-0.277-4.5-0.83-1.333-0.547-2.473-1.297-3.42-2.25-0.953-0.947-1.687-2.07-2.2-3.37-0.52-1.3-0.78-2.717-0.78-4.25v0c0-1.633 0.283-3.127 0.85-4.48 0.567-1.347 1.35-2.503 2.35-3.47 1-0.967 2.183-1.717 3.55-2.25 1.367-0.533 2.85-0.8 4.45-0.8v0c1.6 0 3.067 0.257 4.4 0.77 1.333 0.52 2.483 1.247 3.45 2.18 0.967 0.933 1.717 2.04 2.25 3.32 0.533 1.287 0.8 2.697 0.8 4.23v0c0 1.433-0.24 2.823-0.72 4.17-0.487 1.353-1.203 2.547-2.15 3.58-0.953 1.033-2.123 1.867-3.51 2.5-1.38 0.633-2.987 0.95-4.82 0.95zM12.45-19.7v0c-1.2 0.067-2.257 0.36-3.17 0.88-0.92 0.513-1.687 1.18-2.3 2-0.62 0.813-1.087 1.737-1.4 2.77-0.32 1.033-0.48 2.083-0.48 3.15v0c0 1.233 0.193 2.423 0.58 3.57 0.38 1.153 0.93 2.18 1.65 3.08 0.713 0.9 1.57 1.617 2.57 2.15 1 0.533 2.117 0.8 3.35 0.8v0c1.233 0 2.327-0.267 3.28-0.8 0.947-0.533 1.737-1.223 2.37-2.07 0.633-0.853 1.11-1.813 1.43-2.88 0.313-1.067 0.47-2.133 0.47-3.2v0c0-1.1-0.167-2.21-0.5-3.33-0.333-1.113-0.85-2.13-1.55-3.05-0.7-0.913-1.573-1.653-2.62-2.22-1.053-0.567-2.28-0.85-3.68-0.85zM38.7-19.3h-5.65v16.05c0 0.267 0.033 0.557 0.1 0.87 0.067 0.32 0.177 0.613 0.33 0.88 0.147 0.267 0.313 0.5 0.5 0.7 0.18 0.2 0.403 0.3 0.67 0.3v0 0.5h-6.5v-0.5c0.233 0 0.45-0.1 0.65-0.3 0.2-0.2 0.377-0.433 0.53-0.7 0.147-0.267 0.253-0.56 0.32-0.88 0.067-0.313 0.1-0.603 0.1-0.87v0-16.05h-2.5v-1.7h2.5v-4.05c0-1.033 0.033-2.033 0.1-3 0.067-0.967 0.267-1.833 0.6-2.6 0.333-0.767 0.843-1.383 1.53-1.85 0.68-0.467 1.62-0.7 2.82-0.7v0c0.667 0 1.243 0.073 1.73 0.22 0.48 0.153 0.897 0.32 1.25 0.5 0.347 0.187 0.637 0.353 0.87 0.5 0.233 0.153 0.433 0.23 0.6 0.23v0 3.65h-0.45c-0.167-0.967-0.6-1.777-1.3-2.43-0.7-0.647-1.4-0.97-2.1-0.97v0c-0.967 0-1.6 0.507-1.9 1.52-0.3 1.02-0.45 2.43-0.45 4.23v0 4.75h5.65zM53.3-32.5v-0.5h6.9v0.5c-0.233 0.033-0.45 0.133-0.65 0.3-0.2 0.167-0.3 0.417-0.3 0.75v0c0 0.167 0.05 0.35 0.15 0.55v0l7.5 13.15 7.2-12.45c0.133-0.267 0.227-0.467 0.28-0.6 0.047-0.133 0.07-0.3 0.07-0.5v0c-0.067-0.533-0.257-0.867-0.57-1-0.32-0.133-0.513-0.2-0.58-0.2v0-0.5h5.35v0.5c-0.5 0-1.007 0.307-1.52 0.92-0.52 0.62-0.963 1.247-1.33 1.88v0l-7.8 13.5v12.95c0 0.267 0.043 0.55 0.13 0.85 0.08 0.3 0.187 0.59 0.32 0.87 0.133 0.287 0.3 0.53 0.5 0.73 0.2 0.2 0.433 0.3 0.7 0.3v0h0.25v0.5h-7.15v-0.5h0.25c0.267 0 0.5-0.093 0.7-0.28 0.2-0.18 0.377-0.413 0.53-0.7 0.147-0.28 0.253-0.58 0.32-0.9 0.067-0.313 0.1-0.603 0.1-0.87v0-12.5l-8.05-13.8c-0.167-0.267-0.367-0.567-0.6-0.9-0.233-0.333-0.483-0.65-0.75-0.95-0.267-0.3-0.55-0.56-0.85-0.78-0.3-0.213-0.583-0.32-0.85-0.32v0zM86.6 0.35v0c-1.667 0-3.167-0.277-4.5-0.83-1.333-0.547-2.473-1.297-3.42-2.25-0.953-0.947-1.687-2.07-2.2-3.37-0.52-1.3-0.78-2.717-0.78-4.25v0c0-1.633 0.283-3.127 0.85-4.48 0.567-1.347 1.35-2.503 2.35-3.47 1-0.967 2.183-1.717 3.55-2.25 1.367-0.533 2.85-0.8 4.45-0.8v0c1.6 0 3.067 0.257 4.4 0.77 1.333 0.52 2.483 1.247 3.45 2.18 0.967 0.933 1.717 2.04 2.25 3.32 0.533 1.287 0.8 2.697 0.8 4.23v0c0 1.433-0.24 2.823-0.72 4.17-0.487 1.353-1.203 2.547-2.15 3.58-0.953 1.033-2.12 1.867-3.5 2.5-1.387 0.633-2.997 0.95-4.83 0.95zM86.3-19.7v0c-1.2 0.067-2.257 0.36-3.17 0.88-0.92 0.513-1.687 1.18-2.3 2-0.62 0.813-1.087 1.737-1.4 2.77-0.32 1.033-0.48 2.083-0.48 3.15v0c0 1.233 0.193 2.423 0.58 3.57 0.38 1.153 0.93 2.18 1.65 3.08 0.713 0.9 1.57 1.617 2.57 2.15 1 0.533 2.117 0.8 3.35 0.8v0c1.233 0 2.327-0.267 3.28-0.8 0.947-0.533 1.737-1.223 2.37-2.07 0.633-0.853 1.11-1.813 1.43-2.88 0.313-1.067 0.47-2.133 0.47-3.2v0c0-1.1-0.167-2.21-0.5-3.33-0.333-1.113-0.85-2.13-1.55-3.05-0.7-0.913-1.573-1.653-2.62-2.22-1.053-0.567-2.28-0.85-3.68-0.85zM122.05-21.55v18.3c0 0.233 0.033 0.507 0.1 0.82 0.067 0.32 0.16 0.62 0.28 0.9 0.113 0.287 0.27 0.53 0.47 0.73 0.2 0.2 0.433 0.3 0.7 0.3v0 0.5h-4.85v-2.75c-0.5 0.733-1.233 1.45-2.2 2.15-0.967 0.7-2.217 1.05-3.75 1.05v0c-1.933 0-3.467-0.333-4.6-1-1.133-0.667-2-1.517-2.6-2.55-0.6-1.033-0.983-2.16-1.15-3.38-0.167-1.213-0.25-2.353-0.25-3.42v0-7.15c0-0.3-0.007-0.593-0.02-0.88-0.02-0.28-0.087-0.537-0.2-0.77-0.12-0.233-0.297-0.427-0.53-0.58-0.233-0.147-0.567-0.22-1-0.22v0-0.45l5.05-1.6v12.75c0 2.533 0.55 4.4 1.65 5.6 1.1 1.2 2.45 1.8 4.05 1.8v0c0.867 0 1.643-0.193 2.33-0.58 0.68-0.38 1.263-0.837 1.75-1.37 0.48-0.533 0.847-1.083 1.1-1.65 0.247-0.567 0.37-1.033 0.37-1.4v0-10.65c0-0.3-0.007-0.593-0.02-0.88-0.02-0.28-0.087-0.537-0.2-0.77-0.12-0.233-0.297-0.427-0.53-0.58-0.233-0.147-0.567-0.22-1-0.22v0-0.45zM142.15-20.4l-1.5 3.05c-0.4-0.667-0.817-1.083-1.25-1.25-0.433-0.167-0.933-0.25-1.5-0.25v0c-0.367 0-0.757 0.083-1.17 0.25-0.42 0.167-0.83 0.383-1.23 0.65-0.4 0.267-0.79 0.56-1.17 0.88-0.387 0.313-0.713 0.603-0.98 0.87v0 13c0 0.267 0.033 0.55 0.1 0.85 0.067 0.3 0.177 0.59 0.33 0.87 0.147 0.287 0.313 0.52 0.5 0.7 0.18 0.187 0.403 0.28 0.67 0.28v0 0.5h-6.5v-0.5c0.233 0 0.45-0.093 0.65-0.28 0.2-0.18 0.377-0.413 0.53-0.7 0.147-0.28 0.253-0.57 0.32-0.87 0.067-0.3 0.1-0.583 0.1-0.85v0-13.95c0-0.467-0.15-0.933-0.45-1.4-0.3-0.467-0.733-0.767-1.3-0.9v0-0.4l5.05-1.5v3c0.3-0.367 0.617-0.727 0.95-1.08 0.333-0.347 0.71-0.663 1.13-0.95 0.413-0.28 0.87-0.513 1.37-0.7 0.5-0.18 1.083-0.27 1.75-0.27v0c0.467 0 1.067 0.1 1.8 0.3 0.733 0.2 1.333 0.417 1.8 0.65z" fill="#340dcc" fill-rule="nonzero" stroke="none" stroke-width="1" stroke-linecap="butt" stroke-linejoin="miter" stroke-miterlimit="10" stroke-dasharray="" stroke-dashoffset="0" font-family="none" font-weight="none" font-size="none" text-anchor="none" style="mix-blend-mode: normal" data-fill-palette-color="secondary" opacity="1"></path><path transform="translate(0,141.6)" d="M22.05-21.55v18.3c0 0.233 0.033 0.507 0.1 0.82 0.067 0.32 0.16 0.62 0.28 0.9 0.113 0.287 0.27 0.53 0.47 0.73 0.2 0.2 0.433 0.3 0.7 0.3v0 0.5h-4.85v-2.75c-0.5 0.733-1.233 1.45-2.2 2.15-0.967 0.7-2.217 1.05-3.75 1.05v0c-1.933 0-3.467-0.333-4.6-1-1.133-0.667-2-1.517-2.6-2.55-0.6-1.033-0.983-2.16-1.15-3.38-0.167-1.213-0.25-2.353-0.25-3.42v0-7.15c0-0.3-0.01-0.593-0.03-0.88-0.013-0.28-0.077-0.537-0.19-0.77-0.12-0.233-0.297-0.427-0.53-0.58-0.233-0.147-0.567-0.22-1-0.22v0-0.45l5.05-1.6v12.75c0 2.533 0.55 4.4 1.65 5.6 1.1 1.2 2.45 1.8 4.05 1.8v0c0.867 0 1.643-0.193 2.33-0.58 0.68-0.38 1.263-0.837 1.75-1.37 0.48-0.533 0.847-1.083 1.1-1.65 0.247-0.567 0.37-1.033 0.37-1.4v0-10.65c0-0.3-0.007-0.593-0.02-0.88-0.02-0.28-0.087-0.537-0.2-0.77-0.12-0.233-0.297-0.427-0.53-0.58-0.233-0.147-0.567-0.22-1-0.22v0-0.45zM48.55-12.9v9.65c0 0.267 0.033 0.557 0.1 0.87 0.067 0.32 0.177 0.613 0.33 0.88 0.147 0.267 0.313 0.5 0.5 0.7 0.18 0.2 0.403 0.3 0.67 0.3v0 0.5h-6.45v-0.5c0.233 0 0.45-0.1 0.65-0.3 0.2-0.2 0.377-0.433 0.53-0.7 0.147-0.267 0.253-0.56 0.32-0.88 0.067-0.313 0.1-0.603 0.1-0.87v0-9.3c0-1.2-0.167-2.25-0.5-3.15-0.333-0.9-0.783-1.65-1.35-2.25-0.567-0.6-1.207-1.043-1.92-1.33-0.72-0.28-1.447-0.42-2.18-0.42v0c-0.733 0-1.457 0.15-2.17 0.45-0.72 0.3-1.353 0.693-1.9 1.18-0.553 0.48-1.003 1.043-1.35 1.69-0.353 0.653-0.53 1.33-0.53 2.03v0 11.1c0 0.267 0.033 0.557 0.1 0.87 0.067 0.32 0.177 0.613 0.33 0.88 0.147 0.267 0.313 0.5 0.5 0.7 0.18 0.2 0.403 0.3 0.67 0.3v0 0.5h-6.5v-0.5c0.233 0 0.45-0.1 0.65-0.3 0.2-0.2 0.377-0.433 0.53-0.7 0.147-0.267 0.253-0.56 0.32-0.88 0.067-0.313 0.1-0.603 0.1-0.87v0-13.8c0-0.567-0.083-1.11-0.25-1.63-0.167-0.513-0.65-0.787-1.45-0.82v0-0.45l5-1.6v2.75c0.233-0.267 0.533-0.56 0.9-0.88 0.367-0.313 0.81-0.613 1.33-0.9 0.513-0.28 1.113-0.513 1.8-0.7 0.68-0.18 1.487-0.27 2.42-0.27v0c1.567 0 2.9 0.267 4 0.8 1.1 0.533 2 1.223 2.7 2.07 0.7 0.853 1.21 1.787 1.53 2.8 0.313 1.02 0.47 2.013 0.47 2.98zM73.5-5.7v3.9c-0.267 0-0.517 0.057-0.75 0.17-0.233 0.12-0.5 0.263-0.8 0.43v0c-0.567 0.333-1.283 0.673-2.15 1.02-0.867 0.353-2 0.53-3.4 0.53v0c-1.7 0-3.273-0.277-4.72-0.83-1.453-0.547-2.703-1.313-3.75-2.3-1.053-0.98-1.87-2.13-2.45-3.45-0.587-1.313-0.88-2.737-0.88-4.27v0c0-1.433 0.26-2.8 0.78-4.1 0.513-1.3 1.253-2.45 2.22-3.45 0.967-1 2.16-1.8 3.58-2.4 1.413-0.6 3.02-0.9 4.82-0.9v0c1.233 0 2.233 0.14 3 0.42 0.767 0.287 1.417 0.563 1.95 0.83v0c0.3 0.167 0.593 0.3 0.88 0.4 0.28 0.1 0.57 0.15 0.87 0.15v0 3.8h-0.5c-0.167-0.633-0.467-1.193-0.9-1.68-0.433-0.48-0.933-0.887-1.5-1.22-0.567-0.333-1.183-0.583-1.85-0.75-0.667-0.167-1.317-0.25-1.95-0.25v0c-1.367 0-2.567 0.24-3.6 0.72-1.033 0.487-1.883 1.12-2.55 1.9-0.667 0.787-1.167 1.68-1.5 2.68-0.333 1-0.5 2.033-0.5 3.1v0c0 1.233 0.2 2.44 0.6 3.62 0.4 1.187 0.977 2.247 1.73 3.18 0.747 0.933 1.653 1.683 2.72 2.25 1.067 0.567 2.267 0.85 3.6 0.85v0c0.933 0 1.793-0.133 2.58-0.4 0.78-0.267 1.447-0.617 2-1.05 0.547-0.433 0.987-0.91 1.32-1.43 0.333-0.513 0.533-1.003 0.6-1.47v0zM87.35 0.35v0c-1.667 0-3.167-0.277-4.5-0.83-1.333-0.547-2.473-1.297-3.42-2.25-0.953-0.947-1.687-2.07-2.2-3.37-0.52-1.3-0.78-2.717-0.78-4.25v0c0-1.633 0.283-3.127 0.85-4.48 0.567-1.347 1.35-2.503 2.35-3.47 1-0.967 2.183-1.717 3.55-2.25 1.367-0.533 2.85-0.8 4.45-0.8v0c1.6 0 3.067 0.257 4.4 0.77 1.333 0.52 2.483 1.247 3.45 2.18 0.967 0.933 1.717 2.04 2.25 3.32 0.533 1.287 0.8 2.697 0.8 4.23v0c0 1.433-0.24 2.823-0.72 4.17-0.487 1.353-1.203 2.547-2.15 3.58-0.953 1.033-2.12 1.867-3.5 2.5-1.387 0.633-2.997 0.95-4.83 0.95zM87.05-19.7v0c-1.2 0.067-2.257 0.36-3.17 0.88-0.92 0.513-1.687 1.18-2.3 2-0.62 0.813-1.087 1.737-1.4 2.77-0.32 1.033-0.48 2.083-0.48 3.15v0c0 1.233 0.193 2.423 0.58 3.57 0.38 1.153 0.93 2.18 1.65 3.08 0.713 0.9 1.57 1.617 2.57 2.15 1 0.533 2.117 0.8 3.35 0.8v0c1.233 0 2.327-0.267 3.28-0.8 0.947-0.533 1.737-1.223 2.37-2.07 0.633-0.853 1.11-1.813 1.43-2.88 0.313-1.067 0.47-2.133 0.47-3.2v0c0-1.1-0.167-2.21-0.5-3.33-0.333-1.113-0.85-2.13-1.55-3.05-0.7-0.913-1.573-1.653-2.62-2.22-1.053-0.567-2.28-0.85-3.68-0.85zM123.1-12.9v9.65c0 0.267 0.033 0.557 0.1 0.87 0.067 0.32 0.177 0.613 0.33 0.88 0.147 0.267 0.313 0.5 0.5 0.7 0.18 0.2 0.403 0.3 0.67 0.3v0 0.5h-6.45v-0.5c0.233 0 0.45-0.1 0.65-0.3 0.2-0.2 0.377-0.433 0.53-0.7 0.147-0.267 0.253-0.56 0.32-0.88 0.067-0.313 0.1-0.603 0.1-0.87v0-9.3c0-1.2-0.167-2.25-0.5-3.15-0.333-0.9-0.783-1.65-1.35-2.25-0.567-0.6-1.207-1.043-1.92-1.33-0.72-0.28-1.447-0.42-2.18-0.42v0c-0.733 0-1.457 0.15-2.17 0.45-0.72 0.3-1.353 0.693-1.9 1.18-0.553 0.48-1.003 1.043-1.35 1.69-0.353 0.653-0.53 1.33-0.53 2.03v0 11.1c0 0.267 0.033 0.557 0.1 0.87 0.067 0.32 0.177 0.613 0.33 0.88 0.147 0.267 0.313 0.5 0.5 0.7 0.18 0.2 0.403 0.3 0.67 0.3v0 0.5h-6.5v-0.5c0.233 0 0.45-0.1 0.65-0.3 0.2-0.2 0.377-0.433 0.53-0.7 0.147-0.267 0.253-0.56 0.32-0.88 0.067-0.313 0.1-0.603 0.1-0.87v0-13.8c0-0.567-0.083-1.11-0.25-1.63-0.167-0.513-0.65-0.787-1.45-0.82v0-0.45l5-1.6v2.75c0.233-0.267 0.533-0.56 0.9-0.88 0.367-0.313 0.81-0.613 1.33-0.9 0.513-0.28 1.113-0.513 1.8-0.7 0.68-0.18 1.487-0.27 2.42-0.27v0c1.567 0 2.9 0.267 4 0.8 1.1 0.533 2 1.223 2.7 2.07 0.7 0.853 1.21 1.787 1.53 2.8 0.313 1.02 0.47 2.013 0.47 2.98zM145.85-5.7v0c0 0.867-0.217 1.667-0.65 2.4-0.433 0.733-1.023 1.373-1.77 1.92-0.753 0.553-1.63 0.987-2.63 1.3-1 0.32-2.083 0.48-3.25 0.48v0c-1.433 0-2.6-0.193-3.5-0.58-0.9-0.38-1.667-0.77-2.3-1.17v0c-0.433-0.267-0.833-0.49-1.2-0.67-0.367-0.187-0.767-0.28-1.2-0.28v0-3.8h0.5c0.1 0.467 0.393 0.973 0.88 1.52 0.48 0.553 1.063 1.063 1.75 1.53 0.68 0.467 1.43 0.857 2.25 1.17 0.813 0.32 1.637 0.48 2.47 0.48v0c0.6 0 1.217-0.067 1.85-0.2 0.633-0.133 1.21-0.35 1.73-0.65 0.513-0.3 0.947-0.677 1.3-1.13 0.347-0.447 0.52-0.987 0.52-1.62v0c0-0.633-0.183-1.183-0.55-1.65-0.367-0.467-0.833-0.877-1.4-1.23-0.567-0.347-1.217-0.653-1.95-0.92-0.733-0.267-1.467-0.517-2.2-0.75v0c-0.867-0.267-1.74-0.567-2.62-0.9-0.887-0.333-1.68-0.727-2.38-1.18-0.7-0.447-1.267-0.997-1.7-1.65-0.433-0.647-0.65-1.42-0.65-2.32v0c0-0.767 0.143-1.5 0.43-2.2 0.28-0.7 0.747-1.31 1.4-1.83 0.647-0.513 1.487-0.93 2.52-1.25 1.033-0.313 2.283-0.47 3.75-0.47v0c1.3 0 2.31 0.107 3.03 0.32 0.713 0.22 1.303 0.447 1.77 0.68v0c0.3 0.167 0.6 0.29 0.9 0.37 0.3 0.087 0.633 0.13 1 0.13v0 3.5h-0.4c-0.6-1.1-1.517-1.933-2.75-2.5-1.233-0.567-2.5-0.85-3.8-0.85v0c-0.833 0-1.55 0.107-2.15 0.32-0.6 0.22-1.09 0.49-1.47 0.81-0.387 0.313-0.67 0.67-0.85 1.07-0.187 0.4-0.28 0.8-0.28 1.2v0c0 0.567 0.16 1.05 0.48 1.45 0.313 0.4 0.747 0.75 1.3 1.05 0.547 0.3 1.163 0.583 1.85 0.85 0.68 0.267 1.403 0.517 2.17 0.75v0c0.933 0.3 1.867 0.623 2.8 0.97 0.933 0.353 1.767 0.78 2.5 1.28 0.733 0.5 1.333 1.09 1.8 1.77 0.467 0.687 0.7 1.513 0.7 2.48zM168.6-5.7v3.9c-0.267 0-0.517 0.057-0.75 0.17-0.233 0.12-0.5 0.263-0.8 0.43v0c-0.567 0.333-1.283 0.673-2.15 1.02-0.867 0.353-2 0.53-3.4 0.53v0c-1.7 0-3.273-0.277-4.72-0.83-1.453-0.547-2.703-1.313-3.75-2.3-1.053-0.98-1.87-2.13-2.45-3.45-0.587-1.313-0.88-2.737-0.88-4.27v0c0-1.433 0.26-2.8 0.78-4.1 0.513-1.3 1.253-2.45 2.22-3.45 0.967-1 2.16-1.8 3.58-2.4 1.413-0.6 3.02-0.9 4.82-0.9v0c1.233 0 2.233 0.14 3 0.42 0.767 0.287 1.417 0.563 1.95 0.83v0c0.3 0.167 0.593 0.3 0.88 0.4 0.28 0.1 0.57 0.15 0.87 0.15v0 3.8h-0.5c-0.167-0.633-0.467-1.193-0.9-1.68-0.433-0.48-0.933-0.887-1.5-1.22-0.567-0.333-1.183-0.583-1.85-0.75-0.667-0.167-1.317-0.25-1.95-0.25v0c-1.367 0-2.567 0.24-3.6 0.72-1.033 0.487-1.883 1.12-2.55 1.9-0.667 0.787-1.167 1.68-1.5 2.68-0.333 1-0.5 2.033-0.5 3.1v0c0 1.233 0.2 2.44 0.6 3.62 0.4 1.187 0.977 2.247 1.73 3.18 0.747 0.933 1.653 1.683 2.72 2.25 1.067 0.567 2.267 0.85 3.6 0.85v0c0.933 0 1.793-0.133 2.58-0.4 0.78-0.267 1.447-0.617 2-1.05 0.547-0.433 0.987-0.91 1.32-1.43 0.333-0.513 0.533-1.003 0.6-1.47v0zM179.15 0h-6.5v-0.5c0.267 0 0.5-0.1 0.7-0.3 0.2-0.2 0.367-0.433 0.5-0.7 0.133-0.267 0.233-0.56 0.3-0.88 0.067-0.313 0.1-0.603 0.1-0.87v0-13.85c0-0.567-0.083-1.11-0.25-1.63-0.167-0.513-0.65-0.787-1.45-0.82v0-0.45l5-1.6v18.35c0 0.267 0.033 0.557 0.1 0.87 0.067 0.32 0.167 0.613 0.3 0.88 0.133 0.267 0.3 0.5 0.5 0.7 0.2 0.2 0.433 0.3 0.7 0.3v0zM172.9-26.4v0c0-0.667 0.227-1.233 0.68-1.7 0.447-0.467 1.003-0.7 1.67-0.7v0c0.667 0 1.233 0.233 1.7 0.7 0.467 0.467 0.7 1.033 0.7 1.7v0c0 0.667-0.233 1.217-0.7 1.65-0.467 0.433-1.033 0.65-1.7 0.65v0c-0.667 0-1.223-0.217-1.67-0.65-0.453-0.433-0.68-0.983-0.68-1.65zM195 0.35v0c-1.667 0-3.167-0.277-4.5-0.83-1.333-0.547-2.473-1.297-3.42-2.25-0.953-0.947-1.687-2.07-2.2-3.37-0.52-1.3-0.78-2.717-0.78-4.25v0c0-1.633 0.283-3.127 0.85-4.48 0.567-1.347 1.35-2.503 2.35-3.47 1-0.967 2.183-1.717 3.55-2.25 1.367-0.533 2.85-0.8 4.45-0.8v0c1.6 0 3.067 0.257 4.4 0.77 1.333 0.52 2.483 1.247 3.45 2.18 0.967 0.933 1.717 2.04 2.25 3.32 0.533 1.287 0.8 2.697 0.8 4.23v0c0 1.433-0.24 2.823-0.72 4.17-0.487 1.353-1.203 2.547-2.15 3.58-0.953 1.033-2.12 1.867-3.5 2.5-1.387 0.633-2.997 0.95-4.83 0.95zM194.7-19.7v0c-1.2 0.067-2.257 0.36-3.17 0.88-0.92 0.513-1.687 1.18-2.3 2-0.62 0.813-1.087 1.737-1.4 2.77-0.32 1.033-0.48 2.083-0.48 3.15v0c0 1.233 0.193 2.423 0.58 3.57 0.38 1.153 0.93 2.18 1.65 3.08 0.713 0.9 1.57 1.617 2.57 2.15 1 0.533 2.117 0.8 3.35 0.8v0c1.233 0 2.327-0.267 3.28-0.8 0.947-0.533 1.737-1.223 2.37-2.07 0.633-0.853 1.11-1.813 1.43-2.88 0.313-1.067 0.47-2.133 0.47-3.2v0c0-1.1-0.167-2.21-0.5-3.33-0.333-1.113-0.85-2.13-1.55-3.05-0.7-0.913-1.573-1.653-2.62-2.22-1.053-0.567-2.28-0.85-3.68-0.85zM230.45-21.55v18.3c0 0.233 0.033 0.507 0.1 0.82 0.067 0.32 0.16 0.62 0.28 0.9 0.113 0.287 0.27 0.53 0.47 0.73 0.2 0.2 0.433 0.3 0.7 0.3v0 0.5h-4.85v-2.75c-0.5 0.733-1.233 1.45-2.2 2.15-0.967 0.7-2.217 1.05-3.75 1.05v0c-1.933 0-3.467-0.333-4.6-1-1.133-0.667-2-1.517-2.6-2.55-0.6-1.033-0.983-2.16-1.15-3.38-0.167-1.213-0.25-2.353-0.25-3.42v0-7.15c0-0.3-0.007-0.593-0.02-0.88-0.02-0.28-0.087-0.537-0.2-0.77-0.12-0.233-0.297-0.427-0.53-0.58-0.233-0.147-0.567-0.22-1-0.22v0-0.45l5.05-1.6v12.75c0 2.533 0.55 4.4 1.65 5.6 1.1 1.2 2.45 1.8 4.05 1.8v0c0.867 0 1.643-0.193 2.33-0.58 0.68-0.38 1.263-0.837 1.75-1.37 0.48-0.533 0.847-1.083 1.1-1.65 0.247-0.567 0.37-1.033 0.37-1.4v0-10.65c0-0.3-0.007-0.593-0.02-0.88-0.02-0.28-0.087-0.537-0.2-0.77-0.12-0.233-0.297-0.427-0.53-0.58-0.233-0.147-0.567-0.22-1-0.22v0-0.45zM253.1-5.7v0c0 0.867-0.217 1.667-0.65 2.4-0.433 0.733-1.023 1.373-1.77 1.92-0.753 0.553-1.63 0.987-2.63 1.3-1 0.32-2.083 0.48-3.25 0.48v0c-1.433 0-2.6-0.193-3.5-0.58-0.9-0.38-1.667-0.77-2.3-1.17v0c-0.433-0.267-0.833-0.49-1.2-0.67-0.367-0.187-0.767-0.28-1.2-0.28v0-3.8h0.5c0.1 0.467 0.393 0.973 0.88 1.52 0.48 0.553 1.063 1.063 1.75 1.53 0.68 0.467 1.43 0.857 2.25 1.17 0.813 0.32 1.637 0.48 2.47 0.48v0c0.6 0 1.217-0.067 1.85-0.2 0.633-0.133 1.21-0.35 1.73-0.65 0.513-0.3 0.947-0.677 1.3-1.13 0.347-0.447 0.52-0.987 0.52-1.62v0c0-0.633-0.183-1.183-0.55-1.65-0.367-0.467-0.833-0.877-1.4-1.23-0.567-0.347-1.217-0.653-1.95-0.92-0.733-0.267-1.467-0.517-2.2-0.75v0c-0.867-0.267-1.74-0.567-2.62-0.9-0.887-0.333-1.68-0.727-2.38-1.18-0.7-0.447-1.267-0.997-1.7-1.65-0.433-0.647-0.65-1.42-0.65-2.32v0c0-0.767 0.143-1.5 0.43-2.2 0.28-0.7 0.747-1.31 1.4-1.83 0.647-0.513 1.487-0.93 2.52-1.25 1.033-0.313 2.283-0.47 3.75-0.47v0c1.3 0 2.31 0.107 3.03 0.32 0.713 0.22 1.303 0.447 1.77 0.68v0c0.3 0.167 0.6 0.29 0.9 0.37 0.3 0.087 0.633 0.13 1 0.13v0 3.5h-0.4c-0.6-1.1-1.517-1.933-2.75-2.5-1.233-0.567-2.5-0.85-3.8-0.85v0c-0.833 0-1.55 0.107-2.15 0.32-0.6 0.22-1.09 0.49-1.47 0.81-0.387 0.313-0.67 0.67-0.85 1.07-0.187 0.4-0.28 0.8-0.28 1.2v0c0 0.567 0.16 1.05 0.48 1.45 0.313 0.4 0.747 0.75 1.3 1.05 0.547 0.3 1.163 0.583 1.85 0.85 0.68 0.267 1.403 0.517 2.17 0.75v0c0.933 0.3 1.867 0.623 2.8 0.97 0.933 0.353 1.767 0.78 2.5 1.28 0.733 0.5 1.333 1.09 1.8 1.77 0.467 0.687 0.7 1.513 0.7 2.48z" fill="#340dcc" fill-rule="nonzero" stroke="none" stroke-width="1" stroke-linecap="butt" stroke-linejoin="miter" stroke-miterlimit="10" stroke-dasharray="" stroke-dashoffset="0" font-family="none" font-weight="none" font-size="none" text-anchor="none" style="mix-blend-mode: normal" data-fill-palette-color="secondary" opacity="1"></path><path transform="translate(0,188.8)" d="M34.25-12.6v9.35c0 0.267 0.033 0.557 0.1 0.87 0.067 0.32 0.167 0.613 0.3 0.88 0.133 0.267 0.293 0.5 0.48 0.7 0.18 0.2 0.403 0.3 0.67 0.3v0 0.5h-6.5v-0.5c0.267 0 0.5-0.1 0.7-0.3 0.2-0.2 0.377-0.433 0.53-0.7 0.147-0.267 0.253-0.56 0.32-0.88 0.067-0.313 0.1-0.603 0.1-0.87v0-10.8c0-0.767-0.107-1.5-0.32-2.2-0.22-0.7-0.547-1.307-0.98-1.82-0.433-0.52-0.967-0.94-1.6-1.26-0.633-0.313-1.35-0.47-2.15-0.47v0c-0.9 0-1.673 0.207-2.32 0.62-0.653 0.42-1.187 0.93-1.6 1.53-0.42 0.6-0.73 1.207-0.93 1.82-0.2 0.62-0.3 1.13-0.3 1.53v0 11.05c0 0.267 0.033 0.557 0.1 0.87 0.067 0.32 0.177 0.613 0.33 0.88 0.147 0.267 0.313 0.5 0.5 0.7 0.18 0.2 0.403 0.3 0.67 0.3v0 0.5h-6.45v-0.5c0.233 0 0.45-0.1 0.65-0.3 0.2-0.2 0.373-0.433 0.52-0.7 0.153-0.267 0.263-0.56 0.33-0.88 0.067-0.313 0.1-0.603 0.1-0.87v0-11.1c0-0.8-0.143-1.54-0.43-2.22-0.28-0.687-0.66-1.263-1.14-1.73-0.487-0.467-1.037-0.833-1.65-1.1-0.62-0.267-1.247-0.4-1.88-0.4v0c-0.867 0-1.623 0.167-2.27 0.5-0.653 0.333-1.187 0.75-1.6 1.25-0.42 0.5-0.737 1.04-0.95 1.62-0.22 0.587-0.33 1.147-0.33 1.68v0 11.5c0 0.267 0.033 0.557 0.1 0.87 0.067 0.32 0.177 0.613 0.33 0.88 0.147 0.267 0.313 0.5 0.5 0.7 0.18 0.2 0.403 0.3 0.67 0.3v0 0.5h-6.45v-0.5c0.233 0 0.45-0.1 0.65-0.3 0.2-0.2 0.377-0.433 0.53-0.7 0.147-0.267 0.253-0.56 0.32-0.88 0.067-0.313 0.1-0.603 0.1-0.87v0-13.35c0-0.267-0.017-0.567-0.05-0.9-0.033-0.333-0.1-0.65-0.2-0.95-0.1-0.3-0.267-0.55-0.5-0.75-0.233-0.2-0.55-0.3-0.95-0.3v0-0.45l4.95-1.65v2.55c0.5-0.567 1.193-1.117 2.08-1.65 0.88-0.533 2.037-0.8 3.47-0.8v0c0.933 0 1.767 0.133 2.5 0.4 0.733 0.267 1.377 0.607 1.93 1.02 0.547 0.42 1.02 0.897 1.42 1.43 0.4 0.533 0.733 1.05 1 1.55v0c0.267-0.5 0.583-1.01 0.95-1.53 0.367-0.513 0.81-0.987 1.33-1.42 0.513-0.433 1.13-0.783 1.85-1.05 0.713-0.267 1.553-0.4 2.52-0.4v0c1.867 0 3.333 0.333 4.4 1 1.067 0.667 1.86 1.467 2.38 2.4 0.513 0.933 0.837 1.907 0.97 2.92 0.133 1.02 0.2 1.88 0.2 2.58zM48.1 0h-6.5v-0.5c0.267 0 0.5-0.1 0.7-0.3 0.2-0.2 0.367-0.433 0.5-0.7 0.133-0.267 0.233-0.56 0.3-0.88 0.067-0.313 0.1-0.603 0.1-0.87v0-13.85c0-0.567-0.083-1.11-0.25-1.63-0.167-0.513-0.65-0.787-1.45-0.82v0-0.45l5-1.6v18.35c0 0.267 0.033 0.557 0.1 0.87 0.067 0.32 0.167 0.613 0.3 0.88 0.133 0.267 0.3 0.5 0.5 0.7 0.2 0.2 0.433 0.3 0.7 0.3v0zM41.85-26.4v0c0-0.667 0.227-1.233 0.68-1.7 0.447-0.467 1.003-0.7 1.67-0.7v0c0.667 0 1.233 0.233 1.7 0.7 0.467 0.467 0.7 1.033 0.7 1.7v0c0 0.667-0.233 1.217-0.7 1.65-0.467 0.433-1.033 0.65-1.7 0.65v0c-0.667 0-1.223-0.217-1.67-0.65-0.453-0.433-0.68-0.983-0.68-1.65zM73.55-12.9v9.65c0 0.267 0.033 0.557 0.1 0.87 0.067 0.32 0.177 0.613 0.33 0.88 0.147 0.267 0.313 0.5 0.5 0.7 0.18 0.2 0.403 0.3 0.67 0.3v0 0.5h-6.45v-0.5c0.233 0 0.45-0.1 0.65-0.3 0.2-0.2 0.377-0.433 0.53-0.7 0.147-0.267 0.253-0.56 0.32-0.88 0.067-0.313 0.1-0.603 0.1-0.87v0-9.3c0-1.2-0.167-2.25-0.5-3.15-0.333-0.9-0.783-1.65-1.35-2.25-0.567-0.6-1.207-1.043-1.92-1.33-0.72-0.28-1.447-0.42-2.18-0.42v0c-0.733 0-1.457 0.15-2.17 0.45-0.72 0.3-1.353 0.693-1.9 1.18-0.553 0.48-1.003 1.043-1.35 1.69-0.353 0.653-0.53 1.33-0.53 2.03v0 11.1c0 0.267 0.033 0.557 0.1 0.87 0.067 0.32 0.177 0.613 0.33 0.88 0.147 0.267 0.313 0.5 0.5 0.7 0.18 0.2 0.403 0.3 0.67 0.3v0 0.5h-6.5v-0.5c0.233 0 0.45-0.1 0.65-0.3 0.2-0.2 0.377-0.433 0.53-0.7 0.147-0.267 0.253-0.56 0.32-0.88 0.067-0.313 0.1-0.603 0.1-0.87v0-13.8c0-0.567-0.083-1.11-0.25-1.63-0.167-0.513-0.65-0.787-1.45-0.82v0-0.45l5-1.6v2.75c0.233-0.267 0.533-0.56 0.9-0.88 0.367-0.313 0.81-0.613 1.33-0.9 0.513-0.28 1.113-0.513 1.8-0.7 0.68-0.18 1.487-0.27 2.42-0.27v0c1.567 0 2.9 0.267 4 0.8 1.1 0.533 2 1.223 2.7 2.07 0.7 0.853 1.21 1.787 1.53 2.8 0.313 1.02 0.47 2.013 0.47 2.98zM100.85 0h-4.9v-2.2c-0.567 0.633-1.323 1.217-2.27 1.75-0.953 0.533-2.147 0.8-3.58 0.8v0c-1.767 0-3.307-0.31-4.62-0.93-1.32-0.613-2.413-1.42-3.28-2.42-0.867-1-1.507-2.143-1.92-3.43-0.42-1.28-0.63-2.603-0.63-3.97v0c0-1.333 0.217-2.66 0.65-3.98 0.433-1.313 1.083-2.487 1.95-3.52 0.867-1.033 1.95-1.867 3.25-2.5 1.3-0.633 2.8-0.95 4.5-0.95v0c1.133 0 2.25 0.207 3.35 0.62 1.1 0.42 1.967 0.963 2.6 1.63v0-9.75c0-0.567-0.083-1.1-0.25-1.6-0.167-0.5-0.65-0.767-1.45-0.8v0-0.5l5-1.55v30.05c0 0.267 0.033 0.557 0.1 0.87 0.067 0.32 0.167 0.613 0.3 0.88 0.133 0.267 0.3 0.5 0.5 0.7 0.2 0.2 0.433 0.3 0.7 0.3v0zM90.45-1.3v0c0.7 0 1.383-0.143 2.05-0.43 0.667-0.28 1.25-0.663 1.75-1.15 0.5-0.48 0.91-1.047 1.23-1.7 0.313-0.647 0.47-1.353 0.47-2.12v0-6.85c0-0.933-0.2-1.773-0.6-2.52-0.4-0.753-0.9-1.397-1.5-1.93-0.6-0.533-1.257-0.943-1.97-1.23-0.72-0.28-1.413-0.42-2.08-0.42v0c-1.1 0-2.083 0.257-2.95 0.77-0.867 0.52-1.6 1.187-2.2 2-0.6 0.82-1.05 1.737-1.35 2.75-0.3 1.02-0.45 2.03-0.45 3.03v0c0 1.167 0.167 2.323 0.5 3.47 0.333 1.153 0.827 2.187 1.48 3.1 0.647 0.92 1.437 1.68 2.37 2.28 0.933 0.6 2.017 0.917 3.25 0.95z" fill="#340dcc" fill-rule="nonzero" stroke="none" stroke-width="1" stroke-linecap="butt" stroke-linejoin="miter" stroke-miterlimit="10" stroke-dasharray="" stroke-dashoffset="0" font-family="none" font-weight="none" font-size="none" text-anchor="none" style="mix-blend-mode: normal" data-fill-palette-color="secondary" opacity="1"></path></g></svg></g></svg></g></svg></g></svg></g><g transform="matrix(1,0,0,1,0,11.82771280483226)"><svg viewBox="0 0 182.72017944509503 215.18023945398122" height="215.18023945398122" width="182.72017944509503"><g><svg xmlns="http://www.w3.org/2000/svg" data-name="Layer 1" viewBox="13.403626336720402 6.92 73.18819065574856 86.19000067937141" x="0" y="0" height="215.18023945398122" width="182.72017944509503" class="icon-icon-0" data-fill-palette-color="accent" id="icon-0"><path d="M64.2 40.79a4.47 4.47 0 1 0 6.24 1.07A4.43 4.43 0 0 0 64.2 40.79Z" fill="#7200e9" data-fill-palette-color="accent"></path><path d="M49.66 28.36A5.52 5.52 0 1 0 51.49 36 5.47 5.47 0 0 0 49.66 28.36Z" fill="#7200e9" data-fill-palette-color="accent"></path><path d="M85.25 54.17c1.16-9.72 2.47-20.72-0.33-26.93C80.76 15.46 68.13 6.92 54.83 6.92c-17 0-31.47 13.61-31.81 29.85L13.61 60.84a3 3 0 0 0 2.51 4.08l7.48 0.71 2.78 13.52a3 3 0 0 0 3.14 2.39L40 80.83 39.71 90a3 3 0 0 0 3 3.11h0l40.41-0.46a3 3 0 0 0 3-3.28L84.49 72.39a60.08 60.08 0 0 1-0.13-9.74C84.52 60.23 84.88 57.29 85.25 54.17ZM55.39 42.41a1.35 1.35 0 0 1-0.7 0.79l-4.21 2.25a1.36 1.36 0 0 1-1.8-0.31l0-0.07-1.48-2.17a8.33 8.33 0 0 1-1.79 0L43.84 45a1.38 1.38 0 0 1-1.82 0.41L37.9 42.86a1.38 1.38 0 0 1-0.47-1.81l1.16-2.34a9.35 9.35 0 0 1-0.86-1.56l-2.59-0.33h-0.08A1.4 1.4 0 0 1 34 35.46s0 0 0 0l0.09-4.83a1.35 1.35 0 0 1 0.39-1 1.41 1.41 0 0 1 1-0.42L38 29c0.14-0.28 0.28-0.52 0.45-0.79s0.32-0.52 0.5-0.76l-1-2.43a1.39 1.39 0 0 1 0-1 1.35 1.35 0 0 1 0.7-0.8l4.21-2.25a1.24 1.24 0 0 1 1-0.18 1.49 1.49 0 0 1 0.8 0.49l0 0.06 1.48 2.17a8.15 8.15 0 0 1 1.8 0l1.65-2.12a1.38 1.38 0 0 1 1.81-0.4l4.11 2.52A1.38 1.38 0 0 1 56 25.32l-1.16 2.34a9.37 9.37 0 0 1 0.85 1.54l2.62 0.26 0.1 0a1.41 1.41 0 0 1 1.09 1.36s0 0 0 0l-0.09 4.83a1.35 1.35 0 0 1-0.39 1 1.41 1.41 0 0 1-1 0.42l-2.61 0.19c-0.14 0.28-0.28 0.52-0.45 0.79s-0.33 0.54-0.52 0.79l0.89 2.53A1.41 1.41 0 0 1 55.39 42.41Zm21.25 4.38v0l-1.57 3.46a1.06 1.06 0 0 1-0.59 0.59 1.11 1.11 0 0 1-0.82 0l-1.94-0.68c-0.18 0.16-0.37 0.29-0.57 0.43s-0.41 0.29-0.62 0.41l-0.14 2.1a1.11 1.11 0 0 1-0.28 0.74 1.06 1.06 0 0 1-0.75 0.36l-3.74 0.32a1.07 1.07 0 0 1-1.21-0.78l0-0.06-0.39-2a6.55 6.55 0 0 1-1.28-0.57l-1.76 1a1.08 1.08 0 0 1-1.44-0.27l-2.19-3.09a1.08 1.08 0 0 1 0.23-1.45L59.12 46A7.35 7.35 0 0 1 59 44.59l-1.77-1-0.05 0a1.1 1.1 0 0 1-0.37-1.32v0l1.57-3.46a1.06 1.06 0 0 1 0.59-0.59 1.11 1.11 0 0 1 0.82 0l1.94 0.68c0.18-0.16 0.37-0.29 0.57-0.43s0.39-0.28 0.6-0.4V35.89a1.1 1.1 0 0 1 0.28-0.75 1.06 1.06 0 0 1 0.75-0.36l3.74-0.32a1 1 0 0 1 0.78 0.18 1.17 1.17 0 0 1 0.42 0.6l0 0.06 0.39 2a6.41 6.41 0 0 1 1.29 0.57l1.85-1a1.08 1.08 0 0 1 1.43 0.28l2.19 3.09a1.08 1.08 0 0 1-0.23 1.45L74.26 43a7.36 7.36 0 0 1 0.13 1.38l1.81 1 0.07 0A1.1 1.1 0 0 1 76.64 46.79Z" fill="#7200e9" data-fill-palette-color="accent"></path></svg></g></svg></g></svg></g></svg></g><g><path d="M0 123.6c0-68.262 55.338-123.6 123.6-123.6 36.937 0 70.089 16.202 92.738 41.887l-2.732 0c-22.238-24.481-54.327-39.851-90.006-39.852-67.138 0-121.565 54.426-121.565 121.565 0 67.138 54.426 121.565 121.565 121.565 35.679 0 67.768-15.371 90.006-39.852l2.732 0c-22.649 25.685-55.801 41.887-92.738 41.887-68.262 0-123.6-55.338-123.6-123.6z" fill="#7200e9" stroke="transparent" data-fill-palette-color="tertiary"></path></g></svg></g><defs></defs></svg><rect width="395.52" height="247.2" fill="none" stroke="none" visibility="hidden"></rect></g></svg></g></svg>